<svg width="1800" height="201" viewBox="0 0 1800 201" fill="none" xmlns="http://www.w3.org/2000/svg">
<g id="logo">
<g id="logo_2">
<g id="Group">
<g id="Group_2">
<path id="Vector" d="M482.632 178.262C482.632 179.638 483.021 180.625 483.8 181.235C484.578 181.845 485.474 182.143 486.512 182.143V186.79H453.972V182.143C455.01 182.143 455.906 181.845 456.685 181.235C457.464 180.637 457.853 179.638 457.853 178.262V81.6528C457.853 80.2769 457.464 79.2904 456.685 78.6804C455.906 78.0833 455.01 77.7718 453.972 77.7718V73.125H486.512V77.7718C485.474 77.7718 484.578 78.0703 483.8 78.6804C483.021 79.2904 482.632 80.2769 482.632 81.6528V118.074H551.853V81.6528C551.853 80.2769 551.464 79.2904 550.685 78.6804C549.906 78.0833 549.011 77.7718 547.972 77.7718V73.125H580.513V77.7718C579.475 77.7718 578.579 78.0703 577.8 78.6804C577.021 79.2904 576.632 80.2769 576.632 81.6528V178.262C576.632 179.638 577.021 180.625 577.8 181.235C578.579 181.845 579.475 182.143 580.513 182.143V186.79H547.972V182.143C549.011 182.143 549.906 181.845 550.685 181.235C551.464 180.637 551.853 179.638 551.853 178.262V139.258H482.632V178.262Z" fill="#231F20"/>
<path id="Vector_2" d="M593.96 182.13C596.711 182.13 598.607 181.832 599.645 181.222C600.683 180.625 601.19 179.625 601.19 178.249V81.6528C601.19 80.2769 600.67 79.2904 599.645 78.6804C598.607 78.0833 596.711 77.7718 593.96 77.7718V73.125H633.224V77.7718C628.395 77.7718 625.994 79.0698 625.994 81.6398V178.249C625.994 180.832 628.408 182.117 633.224 182.117V186.764H593.96V182.117V182.13Z" fill="#231F20"/>
<path id="Vector_3" d="M642.778 182.123C643.635 181.954 644.374 181.604 644.971 181.085C645.569 180.565 645.88 179.358 645.88 177.463V82.9437C645.88 80.5294 645.659 79.0757 645.231 78.5565C644.803 78.0373 643.985 77.7777 642.778 77.7777V73.1309H678.68V77.7777C676.954 77.7777 676.097 78.5565 676.097 80.1011C676.097 80.789 676.396 81.6976 677.006 82.8139C677.603 83.9301 678.512 85.5267 679.719 87.5905L711.234 145.714L743.009 87.8501C744.216 85.7863 745.163 84.0989 745.851 82.8139C746.539 81.5289 746.89 80.6203 746.89 80.1011C746.89 78.5565 746.202 77.7777 744.826 77.7777V73.1309H781.247V77.7777C780.378 77.7777 779.573 77.9983 778.794 78.4267C778.015 78.855 777.626 79.7636 777.626 81.1395V178.255C777.626 179.631 778.015 180.617 778.794 181.227C779.573 181.837 780.391 182.136 781.247 182.136V186.783H751.29V182.136C754.911 182.136 756.456 180.838 755.937 178.268V105.684H755.417L711.506 186.796H709.443L667.855 105.684H667.595V178.268C667.595 180.851 669.062 182.136 671.983 182.136V186.783H642.791V182.136L642.778 182.123Z" fill="#231F20"/>
<path id="Vector_4" d="M893.315 97.1452C893.315 93.8743 890.641 92.2388 885.306 92.2388H822.276V118.069H862.059C864.98 118.069 867.135 117.848 868.523 117.42C869.899 116.992 870.587 115.836 870.587 113.928H875.234V141.303H870.068C870.587 139.408 869.899 138.253 868.004 137.811C866.109 137.383 863.435 137.162 859.996 137.162H822.289V167.639H888.409C890.472 167.639 892.199 167.172 893.575 166.224C894.95 165.277 895.638 164.031 895.638 162.473H900.285V189.601H895.638C895.638 188.056 894.95 187.187 893.575 187.018C892.199 186.849 890.472 186.758 888.409 186.758H793.616V182.112C794.473 182.112 795.33 181.813 796.199 181.203C797.056 180.606 797.497 179.607 797.497 178.231V81.6473C797.497 80.2714 797.069 79.2849 796.199 78.6749C795.33 78.0778 794.473 77.7663 793.616 77.7663V73.1195H885.306C890.641 73.1195 893.315 71.5749 893.315 68.4727H897.962V97.1452H893.315Z" fill="#231F20"/>
<path id="Vector_5" d="M979.853 73.125C995.183 73.125 1007.15 75.6691 1015.76 80.7442C1024.36 85.8193 1028.67 94.4769 1028.67 106.704C1028.67 111.351 1027.8 115.491 1026.09 119.1C1024.36 122.721 1022.09 125.862 1019.25 128.523C1016.4 131.197 1013.26 133.352 1009.82 134.987C1006.37 136.623 1002.85 137.869 999.232 138.738L1024.54 175.679C1025.92 177.574 1027.42 179.002 1029.06 179.937C1030.7 180.884 1032.46 181.611 1034.36 182.13V186.777H994.832V182.13C997.065 182.13 998.194 181.351 998.194 179.807C998.194 178.093 996.896 175.42 994.313 171.798L973.908 141.321H938.006V178.262C938.006 179.638 938.564 180.625 939.68 181.235C940.797 181.845 941.874 182.143 942.912 182.143V186.79H908.555V182.143C911.657 182.143 913.202 180.845 913.202 178.275V81.6528C913.202 79.0698 911.657 77.7848 908.555 77.7848V73.138H979.84L979.853 73.125ZM979.334 122.202C996.208 122.202 1004.64 116.867 1004.64 106.185C1004.64 101.888 1002.62 98.4747 998.57 95.9826C994.521 93.4905 988.108 92.2314 979.321 92.2314H938.512V122.189H979.321L979.334 122.202Z" fill="#231F20"/>
<path id="Vector_6" d="M1043.13 182.123C1045.19 181.786 1046.87 180.786 1048.17 179.151C1049.46 177.515 1050.45 176.01 1051.14 174.634L1089.62 90.6927C1090.66 88.2784 1091.47 86.3444 1092.08 84.8777C1092.67 83.4109 1092.99 81.9961 1092.99 80.6203C1092.99 79.5819 1092.76 78.9459 1092.34 78.6863C1091.91 78.4267 1091.43 78.1281 1090.92 77.7777V73.1309H1129.93V77.7777C1129.41 78.1281 1128.85 78.3877 1128.25 78.5565C1127.64 78.7252 1127.34 79.4261 1127.34 80.6203C1127.34 81.6587 1127.73 82.9047 1128.51 84.3715C1129.29 85.8382 1130.1 87.5126 1130.96 89.4077L1172.81 177.23C1173.67 178.774 1174.62 179.903 1175.65 180.591C1176.69 181.279 1177.81 181.799 1179.02 182.136V186.783H1142.34V182.915C1143.19 182.915 1144.1 182.655 1145.05 182.136C1146 181.617 1146.46 180.682 1146.46 179.293C1146.46 178.268 1146.29 177.32 1145.94 176.451C1145.59 175.594 1145.16 174.478 1144.66 173.089L1137.69 158.37H1082.41L1075.18 172.323C1074.49 173.699 1073.93 174.958 1073.5 176.074C1073.07 177.191 1072.85 178.177 1072.85 179.047C1072.85 180.423 1073.28 181.292 1074.15 181.63C1075.01 181.98 1076.22 182.149 1077.77 182.149V186.796H1043.16V182.149L1043.13 182.123ZM1129.41 139.25L1108.48 95.8587L1090.14 139.25H1129.41Z" fill="#231F20"/>
</g>
<g id="Group_3">
<path id="Vector_7" d="M1194.18 119.914C1195.36 119.914 1196.16 119.784 1196.6 119.524C1197.05 119.265 1197.27 118.849 1197.27 118.252V76.9891C1197.27 76.4051 1197.05 75.9767 1196.6 75.7171C1196.16 75.4575 1195.36 75.3277 1194.18 75.3277V73.3418H1210.95V75.3277C1208.88 75.3277 1207.86 75.8859 1207.86 76.9762V118.239C1207.86 119.343 1208.88 119.901 1210.95 119.901V121.887H1194.18V119.901V119.914Z" fill="#231F20"/>
<path id="Vector_8" d="M1216.68 119.912C1218.01 119.912 1218.67 119.354 1218.67 118.251V76.9879C1218.67 75.8846 1218.01 75.3394 1216.68 75.3394V73.3535H1232.91V75.3394C1232.39 75.4173 1232.14 75.599 1232.14 75.8976C1232.14 76.261 1232.95 77.2605 1234.57 78.87L1261.05 106.894V76.9879C1261.05 75.8846 1260.31 75.3394 1258.84 75.3394V73.3535H1272.3V75.3394C1270.98 75.3394 1270.32 75.8976 1270.32 76.9879V118.251C1270.32 119.354 1270.98 119.912 1272.3 119.912V121.898H1257.96V119.912C1258.48 119.912 1258.74 119.731 1258.74 119.354C1258.74 119.056 1258.39 118.55 1257.69 117.81C1256.99 117.07 1256.19 116.226 1255.31 115.266L1227.95 86.1387V118.251C1227.95 119.354 1228.72 119.912 1230.26 119.912V121.898H1216.68V119.912V119.912Z" fill="#231F20"/>
<path id="Vector_9" d="M1331.2 75.3428C1330.18 75.3428 1329.26 76.1865 1328.45 77.8868L1312.34 113.53C1311.54 115.438 1310.93 116.723 1310.53 117.398C1310.13 118.06 1309.92 118.579 1309.92 118.942C1309.92 119.384 1310.58 119.708 1311.9 119.942V121.928H1295.25V119.942C1295.61 119.799 1295.96 119.63 1296.3 119.448C1296.63 119.267 1296.79 118.994 1296.79 118.618C1296.79 118.241 1296.56 117.657 1296.08 116.852C1295.6 116.048 1295.03 114.944 1294.37 113.543L1277.6 77.4715C1277.3 76.8095 1276.91 76.2903 1276.44 75.9269C1275.96 75.5634 1275.51 75.3687 1275.07 75.3687V73.3828H1290.62V75.3687C1289.73 75.3687 1289.29 75.849 1289.29 76.7965C1289.29 77.3157 1289.5 78.0296 1289.9 78.9512C1290.31 79.8728 1290.77 80.8852 1291.28 81.9885L1303.96 109.467L1315.99 82.7673C1316.8 81.002 1317.42 79.6781 1317.86 78.7954C1318.3 77.9128 1318.48 77.2119 1318.41 76.6927C1318.33 75.8101 1317.78 75.3687 1316.76 75.3687V73.3828H1331.2V75.3687V75.3428Z" fill="#231F20"/>
<path id="Vector_10" d="M1378.87 83.6131C1378.87 82.2113 1377.73 81.5233 1375.45 81.5233H1348.53V92.5562H1365.52C1366.77 92.5562 1367.69 92.4654 1368.28 92.2837C1368.86 92.1019 1369.16 91.6087 1369.16 90.791H1371.14V102.486H1368.94C1369.16 101.681 1368.86 101.188 1368.06 100.993C1367.25 100.811 1366.11 100.721 1364.63 100.721H1348.52V113.739H1376.77C1377.65 113.739 1378.39 113.532 1378.97 113.129C1379.56 112.727 1379.85 112.195 1379.85 111.533H1381.84V123.124H1379.85C1379.85 122.462 1379.56 122.098 1378.97 122.021C1378.37 121.943 1377.65 121.917 1376.77 121.917H1336.27V119.931C1336.63 119.931 1337.01 119.801 1337.37 119.541C1337.73 119.282 1337.93 118.866 1337.93 118.269V77.0063C1337.93 76.4222 1337.75 75.9939 1337.37 75.7343C1337.01 75.4747 1336.63 75.3449 1336.27 75.3449V73.359H1375.43C1377.71 73.359 1378.84 72.697 1378.84 71.373H1380.83V83.6261H1378.84L1378.87 83.6131Z" fill="#231F20"/>
<path id="Vector_11" d="M1394.2 105.01C1394.2 105.309 1394.18 105.62 1394.15 105.945C1394.11 106.269 1394.09 106.62 1394.09 106.996C1394.09 108.099 1394.79 109.112 1396.2 110.033C1397.6 110.955 1399.27 111.721 1401.22 112.357C1403.17 112.98 1405.11 113.486 1407.06 113.849C1409.01 114.213 1410.54 114.408 1411.64 114.408C1412.67 114.408 1413.94 114.33 1415.45 114.187C1416.95 114.044 1418.44 113.733 1419.91 113.252C1421.38 112.772 1422.64 112.11 1423.66 111.266C1424.69 110.423 1425.21 109.293 1425.21 107.905C1425.21 106.282 1424.31 105.114 1422.51 104.374C1420.7 103.634 1418.44 103.063 1415.72 102.661C1412.99 102.258 1410.06 101.856 1406.89 101.441C1403.72 101.038 1400.79 100.376 1398.07 99.4547C1395.34 98.5331 1393.08 97.2092 1391.28 95.4828C1389.47 93.7565 1388.58 91.3033 1388.58 88.1492C1388.58 83.4375 1390.52 79.6863 1394.42 76.8956C1398.31 74.105 1403.8 72.7031 1410.86 72.7031C1414.32 72.7031 1417.28 72.9757 1419.74 73.5338C1422.21 74.079 1424.28 74.6891 1425.97 75.351C1427.66 76.013 1429.05 76.6231 1430.11 77.1682C1431.18 77.7134 1431.97 77.9989 1432.49 77.9989C1433.07 77.9989 1433.51 77.9081 1433.81 77.7263C1434.11 77.5446 1434.47 77.3369 1434.92 77.1163L1436.12 78.3234L1430.61 88.6944L1428.62 88.0324C1428.54 87.5911 1428.48 87.1497 1428.4 86.7084C1428.32 86.2671 1428 85.8258 1427.4 85.3845C1425.93 84.1384 1423.65 83.0611 1420.56 82.1784C1417.47 81.2958 1414.02 80.8545 1410.19 80.8545C1408.72 80.8545 1407.32 80.9454 1406 81.1271C1404.67 81.3088 1403.49 81.6203 1402.47 82.0616C1401.44 82.5029 1400.62 83.0741 1400.04 83.775C1399.45 84.4759 1399.16 85.3326 1399.16 86.371C1399.16 87.9934 1400.05 89.1487 1401.86 89.8496C1403.66 90.5505 1405.92 91.0956 1408.64 91.498C1411.37 91.9004 1414.3 92.3028 1417.47 92.7181C1420.64 93.1205 1423.57 93.8084 1426.3 94.756C1429.02 95.7165 1431.28 97.1053 1433.09 98.9485C1434.89 100.792 1435.79 103.323 1435.79 106.568C1435.79 109.813 1434.99 112.448 1433.41 114.511C1431.83 116.575 1429.87 118.185 1427.5 119.366C1425.15 120.547 1422.56 121.313 1419.73 121.689C1416.9 122.053 1414.23 122.234 1411.73 122.234C1409.24 122.234 1406.75 122.001 1404.28 121.521C1401.82 121.04 1399.57 120.495 1397.56 119.859C1395.53 119.236 1393.82 118.652 1392.43 118.094C1391.03 117.549 1390.19 117.263 1389.89 117.263C1389.37 117.263 1388.93 117.484 1388.56 117.925L1387.02 116.822L1392.09 104.465L1394.2 105.01V105.01Z" fill="#231F20"/>
<path id="Vector_12" d="M1455.1 119.913C1455.46 119.913 1455.84 119.783 1456.2 119.524C1456.56 119.264 1456.75 118.849 1456.75 118.252V81.5056H1442.4C1441.82 81.5056 1441.26 81.6484 1440.74 81.9469C1440.22 82.2455 1439.98 82.7257 1439.98 83.3747H1437.99V70.6934H1439.98C1439.98 71.7188 1440.24 72.4197 1440.74 72.7831C1441.26 73.1466 1441.81 73.3413 1442.4 73.3413H1481.68C1482.26 73.3413 1482.82 73.1595 1483.33 72.7831C1483.85 72.4197 1484.11 71.7188 1484.11 70.6934H1486.09V83.3747H1484.11C1484.11 82.7127 1483.85 82.2325 1483.33 81.9469C1482.81 81.6484 1482.26 81.5056 1481.68 81.5056H1467.34V118.252C1467.34 119.355 1468 119.913 1469.32 119.913V121.899H1455.1V119.913V119.913Z" fill="#231F20"/>
<path id="Vector_13" d="M1488.86 119.912C1489.22 119.835 1489.53 119.692 1489.79 119.471C1490.05 119.25 1490.18 118.731 1490.18 117.926V77.546C1490.18 76.5206 1490.09 75.8976 1489.91 75.6639C1489.73 75.4433 1489.38 75.3394 1488.86 75.3394V73.3535H1504.2V75.3394C1503.46 75.3394 1503.1 75.6639 1503.1 76.3389C1503.1 76.6374 1503.23 77.0138 1503.49 77.4941C1503.75 77.9744 1504.14 78.6493 1504.64 79.5319L1518.1 104.362L1531.68 79.6488C1532.2 78.7661 1532.6 78.0522 1532.89 77.4941C1533.19 76.936 1533.33 76.5595 1533.33 76.3389C1533.33 75.6769 1533.03 75.3394 1532.45 75.3394V73.3535H1548.01V75.3394C1547.63 75.3394 1547.29 75.4303 1546.96 75.612C1546.63 75.7937 1546.46 76.1831 1546.46 76.7672V118.251C1546.46 118.835 1546.63 119.263 1546.96 119.523C1547.29 119.783 1547.63 119.912 1548.01 119.912V121.898H1535.21V119.912C1536.75 119.912 1537.42 119.354 1537.2 118.251V87.242H1536.98L1518.22 121.885H1517.34L1499.57 87.242H1499.46V118.251C1499.46 119.354 1500.09 119.912 1501.35 119.912V121.898H1488.87V119.912H1488.86Z" fill="#231F20"/>
<path id="Vector_14" d="M1601.07 83.6131C1601.07 82.2113 1599.93 81.5233 1597.64 81.5233H1570.72V92.5562H1587.71C1588.96 92.5562 1589.88 92.4654 1590.47 92.2837C1591.05 92.1019 1591.35 91.6087 1591.35 90.791H1593.33V102.486H1591.13C1591.35 101.681 1591.05 101.188 1590.24 100.993C1589.44 100.811 1588.3 100.721 1586.83 100.721H1570.72V113.739H1598.97C1599.85 113.739 1600.59 113.532 1601.17 113.129C1601.76 112.727 1602.06 112.195 1602.06 111.533H1604.04V123.124H1602.06C1602.06 122.462 1601.76 122.098 1601.17 122.021C1600.59 121.943 1599.85 121.917 1598.97 121.917H1558.47V119.931C1558.83 119.931 1559.21 119.801 1559.57 119.541C1559.94 119.282 1560.12 118.866 1560.12 118.269V77.0063C1560.12 76.4222 1559.94 75.9939 1559.57 75.7343C1559.21 75.4747 1558.83 75.3449 1558.47 75.3449V73.359H1597.63C1599.91 73.359 1601.06 72.697 1601.06 71.373H1603.04V83.6261H1601.06L1601.07 83.6131Z" fill="#231F20"/>
<path id="Vector_15" d="M1608.68 119.912C1610 119.912 1610.66 119.354 1610.66 118.251V76.9879C1610.66 75.8846 1610 75.3394 1608.68 75.3394V73.3535H1624.9V75.3394C1624.38 75.4173 1624.14 75.599 1624.14 75.8976C1624.14 76.261 1624.94 77.2605 1626.56 78.87L1653.04 106.894V76.9879C1653.04 75.8846 1652.3 75.3394 1650.84 75.3394V73.3535H1664.3V75.3394C1662.97 75.3394 1662.31 75.8976 1662.31 76.9879V118.251C1662.31 119.354 1662.97 119.912 1664.3 119.912V121.898H1649.95V119.912C1650.47 119.912 1650.72 119.731 1650.72 119.354C1650.72 119.056 1650.37 118.55 1649.67 117.81C1648.97 117.07 1648.17 116.226 1647.29 115.266L1619.93 86.1387V118.251C1619.93 119.354 1620.71 119.912 1622.25 119.912V121.898H1608.68V119.912Z" fill="#231F20"/>
<path id="Vector_16" d="M1687.34 119.913C1687.7 119.913 1688.08 119.783 1688.44 119.524C1688.8 119.264 1688.98 118.849 1688.98 118.252V81.5056H1674.64C1674.06 81.5056 1673.5 81.6484 1672.98 81.9469C1672.46 82.2455 1672.21 82.7257 1672.21 83.3747H1670.23V70.6934H1672.21C1672.21 71.7188 1672.47 72.4197 1672.98 72.7831C1673.5 73.1466 1674.04 73.3413 1674.64 73.3413H1713.92C1714.5 73.3413 1715.06 73.1595 1715.58 72.7831C1716.1 72.4197 1716.35 71.7188 1716.35 70.6934H1718.33V83.3747H1716.35C1716.35 82.7127 1716.09 82.2325 1715.58 81.9469C1715.06 81.6484 1714.52 81.5056 1713.92 81.5056H1699.58V118.252C1699.58 119.355 1700.24 119.913 1701.56 119.913V121.899H1687.32V119.913H1687.34Z" fill="#231F20"/>
<path id="Vector_17" d="M1258.05 152.153C1258.05 152.011 1258.04 151.855 1258 151.712C1257.96 151.569 1257.95 151.374 1257.95 151.154C1257.95 150.79 1257.58 150.284 1256.84 149.661C1256.1 149.038 1255.07 148.428 1253.7 147.844C1252.34 147.26 1250.74 146.767 1248.9 146.351C1247.06 145.949 1245.03 145.741 1242.83 145.741C1240.18 145.741 1237.76 146.092 1235.6 146.793C1233.43 147.494 1231.53 148.545 1229.91 149.934C1228.29 151.336 1227.04 153.062 1226.16 155.126C1225.28 157.189 1224.83 159.539 1224.83 162.187C1224.83 164.835 1225.33 167.21 1226.33 169.3C1227.31 171.402 1228.63 173.194 1230.25 174.712C1231.87 176.218 1233.7 177.36 1235.76 178.139C1237.83 178.905 1239.92 179.294 1242.05 179.294C1244.03 179.294 1246.06 179.035 1248.11 178.515C1250.17 177.996 1252.04 177.399 1253.73 176.698C1255.42 175.997 1256.8 175.245 1257.87 174.44C1258.93 173.635 1259.47 172.895 1259.47 172.233V171.351C1259.47 170.909 1259.43 170.546 1259.36 170.247L1260.58 169.144L1268.75 180.839L1267.64 181.384C1266.76 181.021 1266.14 180.839 1265.77 180.839C1265.19 180.839 1264.23 181.163 1262.91 181.825C1261.58 182.487 1259.91 183.24 1257.88 184.084C1255.86 184.928 1253.51 185.641 1250.82 186.239C1248.13 186.823 1245.14 187.121 1241.83 187.121C1238.52 187.121 1235.1 186.641 1231.78 185.693C1228.47 184.733 1225.52 183.214 1222.95 181.111C1220.38 179.009 1218.28 176.4 1216.67 173.272C1215.05 170.143 1214.24 166.522 1214.24 162.407C1214.24 158.293 1215.05 154.684 1216.67 151.595C1218.29 148.506 1220.42 145.91 1223.07 143.82C1225.72 141.73 1228.75 140.16 1232.17 139.134C1235.58 138.109 1239.1 137.59 1242.71 137.59C1245.5 137.59 1248.06 137.849 1250.38 138.369C1252.69 138.888 1254.74 139.472 1256.51 140.134C1258.27 140.796 1259.74 141.38 1260.92 141.899C1262.1 142.418 1262.94 142.665 1263.46 142.665C1263.83 142.665 1264.14 142.561 1264.4 142.34C1264.66 142.12 1264.93 141.938 1265.23 141.795L1266.55 142.561L1259.27 153.049L1258.06 152.166L1258.05 152.153Z" fill="#231F20"/>
<path id="Vector_18" d="M1299.09 137.59C1303.14 137.59 1306.95 138.109 1310.52 139.134C1314.09 140.16 1317.19 141.704 1319.84 143.768C1322.48 145.832 1324.59 148.415 1326.13 151.543C1327.68 154.671 1328.45 158.332 1328.45 162.524C1328.45 166.717 1327.68 170.377 1326.13 173.505C1324.59 176.633 1322.48 179.229 1319.84 181.28C1317.19 183.344 1314.09 184.824 1310.52 185.745C1306.95 186.667 1303.14 187.121 1299.09 187.121C1295.04 187.121 1291.24 186.667 1287.67 185.745C1284.1 184.824 1281 183.331 1278.35 181.28C1275.7 179.216 1273.61 176.633 1272.07 173.505C1270.53 170.377 1269.75 166.717 1269.75 162.524C1269.75 158.332 1270.53 154.671 1272.07 151.543C1273.61 148.415 1275.7 145.819 1278.35 143.768C1281 141.704 1284.1 140.16 1287.67 139.134C1291.24 138.109 1295.04 137.59 1299.09 137.59ZM1299.09 145.754C1296.74 145.754 1294.45 146.144 1292.2 146.909C1289.96 147.688 1287.96 148.791 1286.19 150.219C1284.43 151.66 1283.01 153.399 1281.95 155.463C1280.88 157.527 1280.35 159.876 1280.35 162.524C1280.35 165.172 1280.88 167.521 1281.95 169.585C1283.01 171.649 1284.43 173.388 1286.19 174.829C1287.96 176.27 1289.96 177.373 1292.2 178.139C1294.45 178.905 1296.74 179.294 1299.09 179.294C1301.44 179.294 1303.74 178.905 1305.99 178.139C1308.23 177.36 1310.23 176.257 1312 174.829C1313.76 173.401 1315.18 171.649 1316.24 169.585C1317.3 167.521 1317.84 165.172 1317.84 162.524C1317.84 159.876 1317.3 157.527 1316.24 155.463C1315.18 153.399 1313.76 151.66 1312 150.219C1310.23 148.791 1308.22 147.688 1305.99 146.909C1303.74 146.144 1301.44 145.754 1299.09 145.754V145.754Z" fill="#231F20"/>
<path id="Vector_19" d="M1363.08 138.259C1369.63 138.259 1374.74 139.349 1378.43 141.517C1382.1 143.685 1383.94 147.384 1383.94 152.602C1383.94 154.588 1383.58 156.353 1382.84 157.898C1382.1 159.442 1381.13 160.779 1379.92 161.921C1378.71 163.064 1377.36 163.985 1375.9 164.673C1374.43 165.374 1372.92 165.906 1371.37 166.27L1382.18 182.053C1382.76 182.858 1383.41 183.468 1384.11 183.87C1384.81 184.273 1385.57 184.584 1386.37 184.805V186.791H1369.5V184.805C1370.46 184.805 1370.92 184.468 1370.92 183.806C1370.92 183.066 1370.38 181.923 1369.28 180.392L1360.55 167.373H1345.22V183.157C1345.22 183.741 1345.46 184.169 1345.94 184.429C1346.42 184.688 1346.87 184.818 1347.31 184.818V186.804H1332.63V184.818C1333.96 184.818 1334.62 184.26 1334.62 183.157V141.893C1334.62 140.79 1333.96 140.232 1332.63 140.232V138.246H1363.08V138.259ZM1362.86 159.222C1370.07 159.222 1373.68 156.937 1373.68 152.381C1373.68 150.538 1372.81 149.084 1371.08 148.02C1369.35 146.956 1366.61 146.423 1362.86 146.423H1345.43V159.222H1362.86Z" fill="#231F20"/>
<path id="Vector_20" d="M1392.77 141.893C1392.77 140.79 1391.85 140.232 1390.02 140.232V138.246H1422.13C1428.09 138.246 1432.55 139.31 1435.54 141.439C1438.52 143.568 1440 147.28 1440 152.576C1440 157.872 1438.51 161.532 1435.54 163.557C1432.56 165.582 1428.09 166.594 1422.13 166.594H1403.37V183.144C1403.37 184.247 1404.15 184.805 1405.7 184.805V186.791H1390.03V184.805C1391.87 184.805 1392.78 184.247 1392.78 183.144V141.88L1392.77 141.893ZM1421.9 158.443C1424.02 158.443 1425.82 158.053 1427.24 157.288C1428.68 156.522 1429.4 154.951 1429.4 152.602C1429.4 150.252 1428.68 148.721 1427.24 147.799C1425.82 146.878 1424.02 146.423 1421.9 146.423H1403.36V158.443H1421.9Z" fill="#231F20"/>
<path id="Vector_21" d="M1475.4 137.59C1479.45 137.59 1483.25 138.109 1486.82 139.134C1490.39 140.16 1493.49 141.704 1496.14 143.768C1498.79 145.832 1500.89 148.415 1502.42 151.543C1503.97 154.671 1504.75 158.332 1504.75 162.524C1504.75 166.717 1503.98 170.377 1502.42 173.505C1500.88 176.633 1498.79 179.229 1496.14 181.28C1493.49 183.344 1490.39 184.824 1486.82 185.745C1483.25 186.667 1479.45 187.121 1475.4 187.121C1471.35 187.121 1467.55 186.667 1463.98 185.745C1460.41 184.824 1457.3 183.331 1454.66 181.28C1452.01 179.216 1449.91 176.633 1448.37 173.505C1446.83 170.377 1446.05 166.717 1446.05 162.524C1446.05 158.332 1446.82 154.671 1448.37 151.543C1449.92 148.415 1452.01 145.819 1454.66 143.768C1457.3 141.704 1460.41 140.16 1463.98 139.134C1467.55 138.109 1471.35 137.59 1475.4 137.59ZM1475.4 145.754C1473.05 145.754 1470.75 146.144 1468.51 146.909C1466.26 147.688 1464.26 148.791 1462.5 150.219C1460.73 151.66 1459.32 153.399 1458.25 155.463C1457.19 157.527 1456.66 159.876 1456.66 162.524C1456.66 165.172 1457.19 167.521 1458.25 169.585C1459.32 171.649 1460.73 173.388 1462.5 174.829C1464.26 176.27 1466.26 177.373 1468.51 178.139C1470.75 178.905 1473.05 179.294 1475.4 179.294C1477.75 179.294 1480.05 178.905 1482.29 178.139C1484.54 177.36 1486.54 176.257 1488.3 174.829C1490.07 173.401 1491.48 171.649 1492.55 169.585C1493.61 167.521 1494.14 165.172 1494.14 162.524C1494.14 159.876 1493.61 157.527 1492.55 155.463C1491.48 153.399 1490.07 151.66 1488.3 150.219C1486.54 148.791 1484.54 147.688 1482.29 146.909C1480.05 146.144 1477.75 145.754 1475.4 145.754V145.754Z" fill="#231F20"/>
<path id="Vector_22" d="M1537.18 138.259C1543.73 138.259 1548.84 139.349 1552.53 141.517C1556.2 143.685 1558.04 147.384 1558.04 152.602C1558.04 154.588 1557.67 156.353 1556.94 157.898C1556.2 159.442 1555.23 160.779 1554.02 161.921C1552.8 163.064 1551.46 163.985 1549.99 164.673C1548.53 165.374 1547.02 165.906 1545.46 166.27L1556.28 182.053C1556.86 182.858 1557.51 183.468 1558.21 183.87C1558.91 184.273 1559.66 184.584 1560.47 184.805V186.791H1543.58V184.805C1544.54 184.805 1545.02 184.468 1545.02 183.806C1545.02 183.066 1544.48 181.923 1543.36 180.392L1534.65 167.373H1519.32V183.157C1519.32 183.741 1519.56 184.169 1520.04 184.429C1520.52 184.688 1520.97 184.818 1521.41 184.818V186.804H1506.75V184.818C1508.07 184.818 1508.73 184.26 1508.73 183.157V141.893C1508.73 140.79 1508.07 140.232 1506.75 140.232V138.246H1537.2L1537.18 138.259ZM1536.96 159.222C1544.17 159.222 1547.78 156.937 1547.78 152.381C1547.78 150.538 1546.91 149.084 1545.18 148.02C1543.45 146.956 1540.71 146.423 1536.96 146.423H1519.53V159.222H1536.96Z" fill="#231F20"/>
<path id="Vector_23" d="M1562.78 184.817C1563.66 184.674 1564.38 184.246 1564.93 183.545C1565.48 182.844 1565.91 182.208 1566.21 181.611L1582.65 145.76C1583.09 144.735 1583.44 143.904 1583.7 143.281C1583.96 142.658 1584.09 142.048 1584.09 141.464C1584.09 141.023 1584 140.75 1583.82 140.633C1583.64 140.529 1583.43 140.4 1583.21 140.244V138.258H1599.86V140.244C1599.64 140.387 1599.41 140.503 1599.15 140.568C1598.89 140.646 1598.76 140.945 1598.76 141.451C1598.76 141.892 1598.93 142.424 1599.25 143.047C1599.58 143.67 1599.93 144.384 1600.3 145.202L1618.18 182.714C1618.54 183.376 1618.94 183.856 1619.38 184.142C1619.83 184.44 1620.31 184.661 1620.83 184.804V186.79H1605.16V185.141C1605.52 185.141 1605.91 185.037 1606.31 184.817C1606.72 184.596 1606.92 184.194 1606.92 183.597C1606.92 183.155 1606.85 182.753 1606.7 182.389C1606.56 182.026 1606.37 181.546 1606.15 180.949L1603.17 174.666H1579.56L1576.47 180.624C1576.17 181.208 1575.94 181.74 1575.76 182.221C1575.58 182.701 1575.49 183.116 1575.49 183.493C1575.49 184.077 1575.67 184.453 1576.03 184.596C1576.4 184.739 1576.91 184.817 1577.58 184.817V186.803H1562.79V184.817H1562.78ZM1599.63 166.502L1590.7 147.967L1582.86 166.502H1599.63Z" fill="#231F20"/>
<path id="Vector_24" d="M1627.65 184.816C1628.02 184.816 1628.39 184.686 1628.76 184.427C1629.12 184.167 1629.3 183.752 1629.3 183.155V146.422H1614.96C1614.37 146.422 1613.82 146.564 1613.3 146.863C1612.78 147.161 1612.53 147.629 1612.53 148.291H1610.55V135.609H1612.53C1612.53 136.635 1612.79 137.336 1613.3 137.699C1613.82 138.063 1614.36 138.257 1614.96 138.257H1654.24C1654.82 138.257 1655.38 138.076 1655.9 137.699C1656.42 137.336 1656.66 136.635 1656.66 135.609H1658.65V148.291H1656.66C1656.66 147.629 1656.4 147.149 1655.9 146.863C1655.38 146.564 1654.83 146.422 1654.24 146.422H1639.89V183.155C1639.89 184.258 1640.55 184.816 1641.88 184.816V186.802H1627.64V184.816H1627.65Z" fill="#231F20"/>
<path id="Vector_25" d="M1663.3 184.818C1664.48 184.818 1665.28 184.688 1665.72 184.429C1666.16 184.169 1666.38 183.754 1666.38 183.157V141.893C1666.38 141.309 1666.16 140.881 1665.72 140.621C1665.28 140.362 1664.48 140.232 1663.3 140.232V138.246H1680.07V140.232C1678 140.232 1676.98 140.79 1676.98 141.893V183.157C1676.98 184.26 1678 184.818 1680.07 184.818V186.804H1663.3V184.818Z" fill="#231F20"/>
<path id="Vector_26" d="M1712.71 137.59C1716.76 137.59 1720.56 138.109 1724.13 139.134C1727.7 140.16 1730.8 141.704 1733.45 143.768C1736.1 145.832 1738.19 148.415 1739.73 151.543C1741.28 154.671 1742.06 158.332 1742.06 162.524C1742.06 166.717 1741.29 170.377 1739.73 173.505C1738.19 176.633 1736.1 179.229 1733.45 181.28C1730.8 183.344 1727.7 184.824 1724.13 185.745C1720.56 186.667 1716.76 187.121 1712.71 187.121C1708.66 187.121 1704.86 186.667 1701.29 185.745C1697.72 184.824 1694.62 183.331 1691.97 181.28C1689.32 179.216 1687.22 176.633 1685.67 173.505C1684.13 170.377 1683.36 166.717 1683.36 162.524C1683.36 158.332 1684.13 154.671 1685.67 151.543C1687.22 148.415 1689.32 145.819 1691.97 143.768C1694.62 141.704 1697.72 140.16 1701.29 139.134C1704.86 138.109 1708.66 137.59 1712.71 137.59ZM1712.71 145.754C1710.36 145.754 1708.06 146.144 1705.82 146.909C1703.57 147.688 1701.57 148.791 1699.81 150.219C1698.04 151.66 1696.63 153.399 1695.56 155.463C1694.5 157.527 1693.97 159.876 1693.97 162.524C1693.97 165.172 1694.5 167.521 1695.56 169.585C1696.63 171.649 1698.04 173.388 1699.81 174.829C1701.57 176.27 1703.57 177.373 1705.82 178.139C1708.06 178.905 1710.36 179.294 1712.71 179.294C1715.06 179.294 1717.36 178.905 1719.6 178.139C1721.85 177.36 1723.85 176.257 1725.61 174.829C1727.38 173.401 1728.79 171.649 1729.86 169.585C1730.92 167.521 1731.45 165.172 1731.45 162.524C1731.45 159.876 1730.92 157.527 1729.86 155.463C1728.79 153.399 1727.38 151.66 1725.61 150.219C1723.85 148.791 1721.85 147.688 1719.6 146.909C1717.36 146.144 1715.06 145.754 1712.71 145.754V145.754Z" fill="#231F20"/>
<path id="Vector_27" d="M1744.38 184.808C1745.71 184.808 1746.37 184.249 1746.37 183.146V141.883C1746.37 140.78 1745.71 140.222 1744.38 140.222V138.236H1760.61V140.222C1760.09 140.299 1759.84 140.481 1759.84 140.78C1759.84 141.143 1760.65 142.143 1762.27 143.752L1788.75 171.776V141.87C1788.75 140.767 1788.01 140.209 1786.54 140.209V138.223H1800V140.209C1798.68 140.209 1798.01 140.767 1798.01 141.87V183.133C1798.01 184.236 1798.68 184.795 1800 184.795V186.78H1785.66V184.795C1786.18 184.795 1786.42 184.613 1786.42 184.236C1786.42 183.938 1786.07 183.432 1785.37 182.692C1784.67 181.952 1783.88 181.108 1783 180.148L1755.64 151.021V183.133C1755.64 184.236 1756.41 184.795 1757.96 184.795V186.78H1744.38V184.795V184.808Z" fill="#231F20"/>
</g>
<path id="Vector_28" d="M447.962 171.797C447.443 171.797 446.95 171.758 446.521 171.667C446.08 171.576 445.6 171.537 445.08 171.537C444.029 171.537 441.537 172.588 437.604 174.678C433.671 176.781 428.687 179.13 422.664 181.752C416.641 184.374 409.775 186.646 402.078 188.567C394.381 190.488 386.346 191.448 377.961 191.448C366.954 191.448 356.376 190.046 346.239 187.256C336.101 184.465 327.145 180.13 319.357 174.276C311.582 168.422 305.417 161.127 300.874 152.379C296.331 143.643 294.059 133.415 294.059 121.707C294.059 109.999 296.331 99.9919 300.874 91.1656C305.417 82.3393 311.582 74.9537 319.357 69.0089C327.132 63.0641 336.088 58.612 346.239 55.6396C356.376 52.6672 366.954 51.1875 377.961 51.1875C386.879 51.1875 394.965 51.8884 402.221 53.2902C409.477 54.6921 415.811 56.1718 421.236 57.7424C426.649 59.3129 430.932 60.8056 434.086 62.1945C437.228 63.5963 439.149 64.2972 439.85 64.2972C440.719 64.2972 441.459 63.8689 442.082 62.9862C442.692 62.1166 443.172 61.4157 443.523 60.8835L447.456 64.0246L426.999 95.7475L424.377 93.9173C424.377 93.3981 424.339 92.866 424.248 92.3468C424.157 91.8276 424.027 91.2175 423.858 90.5166C423.508 88.5956 421.756 86.6226 418.614 84.6237C415.473 82.6118 411.579 80.8206 406.945 79.25C402.312 77.6795 397.418 76.3685 392.265 75.3171C387.112 74.2658 382.349 73.7466 377.974 73.7466C370.628 73.7466 363.593 74.7979 356.869 76.8877C350.132 78.9904 344.279 82.0407 339.307 86.0645C334.323 90.0883 330.351 95.0206 327.379 100.875C324.406 106.728 322.927 113.413 322.927 120.928C322.927 128.444 324.406 135.129 327.379 140.982C330.351 146.836 334.323 151.782 339.307 155.792C344.292 159.816 350.145 162.867 356.869 164.969C363.593 167.072 370.628 168.11 377.974 168.11C383.569 168.11 389.423 167.461 395.536 166.15C401.65 164.839 407.244 163.178 412.319 161.166C417.381 159.154 421.626 156.883 425.039 154.352C428.453 151.821 430.154 149.419 430.154 147.135C430.154 145.915 429.803 144.863 429.102 143.994L432.775 141.891L450.078 169.681L447.975 171.784L447.962 171.797Z" fill="#231F20"/>
</g>
<g id="Group 1">
<path id="Vector_29" d="M63.6001 7.60622C62.6656 8.16435 61.705 8.73547 60.3811 9.52724C61.2118 6.25631 57.863 3.51755 60.0436 0C63.8597 2.1287 67.8575 3.02432 71.8813 1.81719C73.997 3.18007 75.4508 4.78958 77.891 5.33474C79.9158 5.78903 81.9277 7.54132 83.3296 9.22871C89.3003 16.3806 91.9482 24.5709 90.4296 33.9684C89.2614 41.2501 79.8509 49.9726 70.3886 47.0521C65.4692 45.5335 60.5628 43.9499 55.6175 42.5092C50.5164 41.0165 45.4542 39.2382 40.2493 38.3296C32.8507 37.0446 25.7767 38.4465 19.3906 42.7039C13.1083 46.8834 8.48746 56.3068 11.992 65.86C14.2246 71.9605 19.1569 74.3359 25.1407 74.9978C27.3862 75.2445 29.6707 75.0368 31.5917 75.0368C37.0822 71.8956 42.2092 68.7934 47.4921 66.0028C55.942 61.5377 65.0019 60.6421 74.3734 62.005C76.7747 62.3554 79.2019 62.4852 81.5773 62.9006C91.3122 64.6009 99.6453 69.715 108.303 73.9984C112.781 76.2179 117.194 78.5803 121.646 80.8777C126.007 78.8788 128.694 75.9064 129.668 71.1428C130.641 66.4051 131.251 61.6675 128.915 57.4101C125.475 51.1408 126.15 45.3647 129.642 39.5368C129.888 39.1214 130.096 38.6931 130.304 38.2518C130.369 38.109 130.343 37.9273 130.356 37.7715C126.566 33.6569 121.932 32.8262 116.857 35.3572C112.366 37.6028 110.094 41.9251 111.042 47.0391C111.6 50.0375 112.651 52.945 113.391 55.9174C114.001 58.3836 114.455 60.8887 114.3 63.5496C112.418 58.1499 110.393 52.7892 108.679 47.3377C106.083 39.0695 110.86 31.1258 120.569 30.2302C121.036 30.1912 121.477 29.9836 122.607 29.672C118.479 28.7635 114.962 28.7115 111.496 29.2826C107.394 29.9576 104.357 33.7607 103.929 38.2907C103.604 41.7304 104.357 45.0143 105.343 48.2982C106.226 51.2187 106.992 54.204 107.459 57.2154C107.68 58.6821 107.096 60.2657 106.577 61.7843C106.226 57.5009 104.941 53.607 103.293 49.726C102.098 46.9223 101.32 43.911 100.723 40.9126C99.0093 32.2291 105.11 24.8825 113.962 24.2724C123.84 23.5975 131.251 27.4395 136.391 35.6428C138.948 35.4351 141.324 35.0717 143.712 35.0847C145.283 35.0847 147.035 35.3053 148.372 36.0192C153.084 38.5633 158.016 39.6406 163.325 39.1084C163.961 39.0435 164.623 39.1084 165.791 39.1084C166.907 40.4843 168.179 42.0419 169.892 44.1576C166.622 45.2869 163.987 46.1955 161.326 47.104C162.027 49.064 163.532 48.5318 164.714 48.7655C165.791 48.9861 166.868 49.2198 168.205 49.5053C168.101 50.7514 168.01 51.7898 167.907 52.9839C164.649 53.8017 161.624 54.5675 158.133 55.4501C160.171 58.5523 161.585 61.2392 158.665 64.7178C158.146 62.8357 157.808 61.4858 157.406 60.1618C156.575 57.3971 155.459 56.4885 152.512 56.3976C149.605 56.3068 146.671 56.2938 143.686 58.4874C145.672 65.6913 147.437 73.1287 153.538 79.2682C155.783 78.5284 158.159 77.7366 160.534 76.9708C162.961 76.192 165.388 75.4262 168.75 74.3618C172.346 74.5955 175.798 71.7269 179.627 69.8318C180.744 69.2737 181.86 68.6896 182.911 68.0406C183.989 67.3786 185.209 66.7945 185.988 65.86C187.727 63.7573 189.882 62.5112 192.335 62.0179C198.747 53.2955 206.223 53.7368 211.792 63.0953C214.569 63.5885 217.425 64.0947 221.085 64.7437C221.942 65.847 223.227 67.5084 224.447 69.105C229.172 69.3386 233.455 69.5593 238.063 69.7799C241.334 72.8172 242.515 77.8404 241.905 87.4715C239.646 90.7165 235.96 90.5737 231.975 90.3531C231.119 91.2746 230.262 92.1832 229.535 92.962C229.795 93.6759 229.821 94.0134 230.002 94.2211C230.638 94.9479 231.378 95.5969 231.988 96.3498C234.221 99.0885 234.299 100.88 232.183 103.748C231.223 105.046 230.002 106.163 229.029 107.435C228.055 108.707 227.017 109.992 226.381 111.432C223.525 117.819 220.021 123.711 214.673 128.397C213.116 129.76 211.831 131.447 211.195 132.135C208.157 134.679 205.964 136.497 202.978 139.002C201.888 139.3 199.733 139.897 197.592 140.481C195.385 144.129 197.669 146.712 199.201 149.464C202.68 151.216 206.379 151.761 210.065 151.943C213.855 152.124 217.399 153.02 220.852 154.474C222.188 155.032 223.616 155.421 224.901 156.083C232.715 160.107 241.087 160.198 249.55 159.64C250.666 159.562 251.809 159.328 252.847 158.926C255.949 157.693 259.129 157.589 262.79 158.004C265.736 162.21 269.799 165.974 270.5 172.347C268.825 172.01 267.67 171.763 266.398 171.503C266.229 172.023 265.957 172.451 265.996 172.853C266.112 174.099 266.333 175.345 266.554 176.825C265.347 176.527 264.503 176.319 263.296 176.02C262.945 177.552 262.647 178.889 262.296 180.459C261.582 180.057 260.869 179.642 259.882 179.084C256.455 180.654 252.925 178.902 248.81 178.655C250.913 182.874 252.899 186.833 254.924 190.882C254.508 192.141 254.119 193.336 253.73 194.504C251.99 194.192 250.498 193.933 248.888 193.647C248.252 195.399 247.72 196.866 246.993 198.839C246.007 197.71 245.345 196.944 244.592 196.087C242.294 197.814 239.776 197.437 237.089 196.49C236.337 197.84 235.649 199.073 234.74 200.695C233.818 199.722 233.04 198.891 232.313 198.138C229.678 197.645 227.134 197.217 224.616 196.684C223.525 196.451 222.163 196.282 221.462 195.568C218.814 192.829 215.322 192.323 211.947 191.22C209.741 190.506 207.807 188.793 205.899 187.339C204.756 186.482 203.9 185.249 202.719 183.977C198.825 183.679 194.814 183.185 190.79 183.094C182.73 182.939 175.136 181.096 167.92 177.552C164.441 175.839 160.897 174.242 157.38 172.62C151.188 169.751 144.867 167.363 138.079 167.454C135.431 165.169 136.404 162.184 135.859 159.147C134.574 158.718 133.107 158.173 131.602 157.719C124.164 155.473 117.038 152.488 110.133 148.918C104.487 145.998 100.19 141.779 96.5431 136.73C93.8952 133.057 91.1954 129.41 88.4956 125.762C87.7427 124.737 86.886 123.776 86.1073 122.816C84.1992 123.75 84.6535 125.386 84.6146 126.762C84.5367 129.423 84.0045 131.928 82.382 134.056C78.7996 138.742 78.3712 144.129 78.5919 149.827C82.0965 153.435 86.4966 155.447 91.1564 156.758C94.7129 157.758 98.4511 158.069 102.073 158.809C105.071 159.419 108.03 160.211 111.016 160.912C112.729 161.314 114.455 161.691 116.584 162.158C118.894 164.027 119.764 166.844 119.712 169.336C118.297 171.958 117.207 173.983 115.987 176.228C115.299 175.994 114.455 175.709 113.417 175.358C112.586 176.63 111.73 177.915 110.717 179.473C109.484 178.616 108.485 177.915 107.277 177.072C106.304 178.149 105.395 179.174 104.5 180.161C104.045 179.888 103.643 179.798 103.513 179.564C102.592 177.851 101.605 176.267 99.827 175.216C98.7367 174.58 97.8411 173.541 97.0104 172.555C90.8449 165.234 82.5637 162.885 73.4519 162.547C69.3632 162.391 65.4043 161.924 62.4968 158.861C61.6272 154.772 63.1199 151.229 63.7948 147.62C65.1447 140.442 61.8478 132.966 55.306 129.345C54.0339 130.837 52.8268 132.525 51.3341 133.914C47.3103 137.665 43.1438 141.273 39.0681 144.985C37.8869 146.063 36.6279 147.127 35.7323 148.425C32.3315 153.396 28.6842 158.095 23.8037 161.742C22.6485 162.612 21.727 163.767 20.5588 164.923C19.5204 169.063 20.7145 173.113 21.5452 177.033C26.192 181.238 27.3083 181.303 37.186 177.941C39.795 179.291 42.7284 180.628 45.4672 182.303C46.4147 182.874 46.869 184.25 47.7127 185.509C46.1681 186.508 45.0129 187.261 43.8058 188.04C43.65 189.169 43.4813 190.259 43.3515 191.194C39.9767 190.662 36.4332 193.31 32.9675 189.442C33.4608 191.687 33.7204 192.881 33.98 194.036C33.5906 194.283 33.2142 194.634 33.1233 194.569C31.4619 193.413 30.0601 194.595 28.6063 195.049C24.92 196.217 21.3116 196.334 17.7551 194.608C15.7822 193.647 14.4452 192.193 13.5626 190.13C11.2262 184.652 8.8509 179.174 6.22896 173.814C5.11269 171.516 3.34742 169.543 1.91963 167.48C1.97155 164.17 4.12622 162.288 6.35876 160.756C8.9158 159.004 10.4864 156.693 11.4988 153.916C13.2251 149.178 15.5355 144.765 18.443 140.65C19.3646 139.339 19.9228 137.782 20.6886 136.367C22.5058 133.005 22.4928 129.578 21.078 126.087C19.9876 123.387 19.0401 120.635 17.846 117.987C15.0942 111.939 15.1851 105.76 16.9244 99.5298C18.1834 95.0518 19.6112 90.6386 21.039 85.9788C19.3646 85.3039 17.5864 84.59 15.8211 83.8501C7.35821 80.2807 2.98398 73.622 0.777401 64.9125C-3.96026 46.2084 13.8741 29.6071 29.3851 29.2307C39.6522 28.9841 49.2184 31.4633 58.7197 34.7602C62.9901 36.2399 67.2215 37.8494 71.5438 39.1344C76.8007 40.705 82.3041 37.6417 83.4723 32.3199C84.316 28.4779 84.4199 24.4931 80.0327 21.3649C77.3977 21.1442 74.2047 20.7808 70.9857 20.6251C67.2085 20.4433 63.6131 19.8333 60.42 17.0815C61.3027 16.6402 62.0036 16.3027 62.6915 15.9653C67.4422 17.2113 71.2323 17.2243 75.6455 15.9263C75.7233 15.2644 75.8272 14.5115 75.9699 13.4212C71.8294 11.5002 67.7796 9.63108 63.5741 7.6841L63.6001 7.60622ZM226.654 171.542H210.753C216.906 176.449 223.305 176.903 230.158 176.059C228.899 174.437 227.757 172.957 226.654 171.542Z" fill="#231F20"/>
<path id="Vector_30" d="M226.655 171.539C227.758 172.967 228.9 174.434 230.159 176.056C223.306 176.9 216.907 176.445 210.754 171.539H226.655Z" fill="#231F20"/>
</g>
</g>
</g>
</svg>
