<svg width="800" height="388" viewBox="0 0 800 388" fill="none" xmlns="http://www.w3.org/2000/svg">
<path d="M43.7216 300.909C42.9545 294.453 36.946 290.682 29.0199 290.682C20.3267 290.682 14.5739 295.284 14.5739 301.548C14.5739 308.58 22.3722 311.136 27.2301 312.415L33.8778 314.205C40.6534 315.994 52.2869 319.957 52.2869 332.23C52.2869 342.841 43.7216 351.151 28.6364 351.151C14.5739 351.151 5.88068 343.864 5.11364 333.125H13.2955C13.9347 340.54 20.8381 343.991 28.6364 343.991C37.7131 343.991 44.6165 339.261 44.6165 332.102C44.6165 325.582 38.4801 323.153 31.5767 321.236L23.5227 318.935C13.2955 315.994 6.90341 310.753 6.90341 301.932C6.90341 290.938 16.7472 283.651 29.2756 283.651C41.9318 283.651 51.0405 291.033 51.392 300.909H43.7216ZM79.7392 351.023C66.4437 351.023 57.4949 340.923 57.4949 325.71C57.4949 310.369 66.4437 300.27 79.7392 300.27C93.0346 300.27 101.983 310.369 101.983 325.71C101.983 340.923 93.0346 351.023 79.7392 351.023ZM79.7392 344.247C89.8386 344.247 94.4409 335.554 94.4409 325.71C94.4409 315.866 89.8386 307.045 79.7392 307.045C69.6397 307.045 65.0375 315.866 65.0375 325.71C65.0375 335.554 69.6397 344.247 79.7392 344.247ZM116.54 284.545V350H108.997V284.545H116.54ZM156.792 329.929V300.909H164.335V350H156.792V341.69H156.281C153.98 346.676 149.122 350.639 141.707 350.639C132.502 350.639 125.855 344.631 125.855 332.102V300.909H133.397V331.591C133.397 338.75 137.872 343.352 144.136 343.352C149.761 343.352 156.792 339.134 156.792 329.929ZM194.999 300.909V307.301H184.516V335.938C184.516 342.33 187.712 343.352 191.036 343.352C192.698 343.352 193.721 343.097 194.36 342.969L195.894 349.744C194.871 350.128 193.081 350.639 190.269 350.639C183.877 350.639 176.973 346.548 176.973 337.983V307.301H169.559V300.909H176.973V289.148H184.516V300.909H194.999ZM201.845 350V300.909H209.387V350H201.845ZM205.68 292.727C202.74 292.727 200.311 290.426 200.311 287.614C200.311 284.801 202.74 282.5 205.68 282.5C208.62 282.5 211.049 284.801 211.049 287.614C211.049 290.426 208.62 292.727 205.68 292.727ZM238.645 351.023C225.35 351.023 216.401 340.923 216.401 325.71C216.401 310.369 225.35 300.27 238.645 300.27C251.941 300.27 260.89 310.369 260.89 325.71C260.89 340.923 251.941 351.023 238.645 351.023ZM238.645 344.247C248.745 344.247 253.347 335.554 253.347 325.71C253.347 315.866 248.745 307.045 238.645 307.045C228.546 307.045 223.944 315.866 223.944 325.71C223.944 335.554 228.546 344.247 238.645 344.247ZM275.446 320.469V350H267.903V300.909H275.19V308.58H275.83C278.131 303.594 282.733 300.27 290.148 300.27C300.087 300.27 306.767 306.278 306.767 318.807V350H299.224V319.318C299.224 311.616 294.974 307.045 287.974 307.045C280.751 307.045 275.446 311.903 275.446 320.469ZM350.823 311.903L344.047 313.821C342.737 310.433 340.02 306.79 333.436 306.79C327.428 306.79 322.953 309.858 322.953 314.077C322.953 317.848 325.574 319.798 331.391 321.236L338.678 323.026C347.435 325.167 351.718 329.482 351.718 336.321C351.718 344.79 343.951 351.023 332.541 351.023C322.506 351.023 315.634 346.58 313.877 338.239L321.036 336.449C322.378 341.722 326.245 344.375 332.414 344.375C339.445 344.375 343.919 340.923 343.919 336.705C343.919 333.317 341.586 330.952 336.632 329.801L328.45 327.884C319.438 325.774 315.411 321.236 315.411 314.46C315.411 306.151 323.081 300.27 333.436 300.27C343.152 300.27 348.458 304.936 350.823 311.903Z" fill="#1C1B4A"/>
<path d="M138.331 95L78.3993 185.65L18.4529 95H8V248H18.6707V115.238L77.7535 203.363H78.6095L137.692 115.238V248H148.791V95H138.331Z" fill="#1C1B4A"/>
<path d="M275.496 195.026L236.245 106.47L196.784 195.026H275.496ZM231.131 94H241.794L311.337 248H299.187L280.197 205.31H192.09L173.115 248H161.595L231.131 94Z" fill="#1C1B4A"/>
<path d="M388.777 174.472C413.738 174.472 432.301 161.57 432.301 139.485V139.054C432.301 118.501 416.509 105.592 389.423 105.592H338.435V174.472H388.777ZM327.344 95H390.069C408.406 95 423.117 100.996 432.09 110.187C439.119 117.392 443.399 127.684 443.399 138.615V139.054C443.399 164.626 424.829 179.29 399.658 182.785L448.934 248H434.854L387.29 184.756H338.435V248H327.344V95Z" fill="#1C1B4A"/>
<path d="M463.347 95H569.58V105.584H474.438V165.719H559.968V176.227H474.438V237.663H570.639V248H463.347V95Z" fill="#1C1B4A"/>
<path d="M713 95L655.474 170.091L715 248H701.769L648.648 177.528L595.746 248H582.747L642.04 170.091L584.78 95H598.004L649.076 162.663L700 95H713Z" fill="#1C1B4A"/>
<path d="M751.686 39.3143L663 19.6571L791 0C783.862 46.4996 778.481 81.5004 771.343 128L751.686 39.3143Z" fill="#793690"/>
</svg>
